<?xml version="1.0" encoding="iso-8859-1"?>
<!-- Generator: Adobe Illustrator 21.0.0, SVG Export Plug-In . SVG Version: 6.00 Build 0)  -->
<svg xmlns="http://www.w3.org/2000/svg" xmlns:xlink="http://www.w3.org/1999/xlink" version="1.1" id="Capa_1" x="0px" y="0px" viewBox="0 0 512 512" style="enable-background:new 0 0 512 512;" xml:space="preserve" width="512" height="512">
<path d="M512,256C512,114.508,397.503,0,256,0C114.483,0,0,114.534,0,256c0,141.492,114.497,256,256,256  C397.267,512,512,397.503,512,256z M425.603,405.35l-68.113-68.113c37.78-47.126,37.92-114.659,0.425-161.939l68.137-68.137  C500.636,192.263,500.486,320.421,425.603,405.35z M185.289,326.711c-38.99-38.99-38.99-102.432,0-141.422  c38.988-38.988,102.431-38.991,141.422,0c38.99,38.99,38.99,102.432,0,141.422S224.279,365.701,185.289,326.711z M404.839,85.948  l-68.137,68.137c-47.28-37.495-114.813-37.354-161.939,0.425L106.65,86.397C191.473,11.604,319.584,11.233,404.839,85.948z   M85.498,107.671l68.162,68.162c-36.93,47.074-36.787,113.946,0.425,160.869l-68.137,68.137  C11.663,320.078,11.511,192.604,85.498,107.671z M107.161,426.052l68.137-68.137c46.758,37.081,113.601,37.507,160.869,0.425  l68.162,68.162C319.396,500.489,191.922,500.337,107.161,426.052z"/>















</svg>
